<svg xmlns="http://www.w3.org/2000/svg" width="256" height="256" viewBox="0 0 256 256" role="img" aria-label="Player token">
  <defs>
    <linearGradient id="body" x1="55" y1="33" x2="203" y2="225" gradientUnits="userSpaceOnUse">
      <stop stop-color="#5eead4"/>
      <stop offset="1" stop-color="#0f766e"/>
    </linearGradient>
    <filter id="shadow" x="-20%" y="-20%" width="140%" height="140%">
      <feDropShadow dx="0" dy="16" stdDeviation="14" flood-color="#0f172a" flood-opacity=".24"/>
    </filter>
  </defs>
  <circle cx="128" cy="128" r="104" fill="#ecfeff"/>
  <path fill="url(#body)" filter="url(#shadow)" d="M128 40c33 0 60 27 60 60 0 20-10 38-25 49 27 11 45 36 45 67H48c0-31 18-56 45-67a60 60 0 0 1 35-109Z"/>
  <circle cx="106" cy="104" r="9" fill="#0f172a"/>
  <circle cx="150" cy="104" r="9" fill="#0f172a"/>
  <path fill="none" stroke="#0f172a" stroke-linecap="round" stroke-width="10" d="M105 134c13 13 33 13 46 0"/>
</svg>
